<mxfile host="app.diagrams.net" agent="Mozilla/5.0 (Macintosh; Intel Mac OS X 10_15_7) AppleWebKit/537.36 (KHTML, like Gecko) Chrome/130.0.0.0 Safari/537.36" version="24.8.3">
  <diagram name="Page-1" id="JQcxOu5TjSLj65uBVFP2">
    <mxGraphModel dx="2092" dy="674" grid="1" gridSize="10" guides="1" tooltips="1" connect="1" arrows="1" fold="1" page="1" pageScale="1" pageWidth="850" pageHeight="1100" math="0" shadow="0">
      <root>
        <mxCell id="0" />
        <mxCell id="1" parent="0" />
        <mxCell id="pt1OST3lwN21b6mKkAR4-1" value="&lt;font style=&quot;font-size: 25px;&quot;&gt;AC&lt;/font&gt;" style="whiteSpace=wrap;html=1;aspect=fixed;verticalAlign=bottom;" vertex="1" parent="1">
          <mxGeometry x="640" y="40" width="120" height="120" as="geometry" />
        </mxCell>
        <mxCell id="pt1OST3lwN21b6mKkAR4-3" value="&lt;span style=&quot;font-size: 25px;&quot;&gt;&amp;nbsp;Max HP&lt;/span&gt;" style="rounded=1;whiteSpace=wrap;html=1;verticalAlign=top;" vertex="1" parent="1">
          <mxGeometry x="40" y="40" width="200" height="290" as="geometry" />
        </mxCell>
        <mxCell id="pt1OST3lwN21b6mKkAR4-4" value="&lt;span style=&quot;font-size: 25px;&quot;&gt;Initiative&lt;/span&gt;" style="whiteSpace=wrap;html=1;aspect=fixed;verticalAlign=bottom;" vertex="1" parent="1">
          <mxGeometry x="800" y="40" width="120" height="120" as="geometry" />
        </mxCell>
        <mxCell id="pt1OST3lwN21b6mKkAR4-5" value="&lt;font style=&quot;font-size: 25px;&quot;&gt;Speed&lt;/font&gt;" style="whiteSpace=wrap;html=1;aspect=fixed;verticalAlign=bottom;" vertex="1" parent="1">
          <mxGeometry x="960" y="40" width="120" height="120" as="geometry" />
        </mxCell>
        <mxCell id="pt1OST3lwN21b6mKkAR4-8" value="" style="rounded=0;whiteSpace=wrap;html=1;" vertex="1" parent="1">
          <mxGeometry x="-80" y="125" width="40" height="200" as="geometry" />
        </mxCell>
        <mxCell id="pt1OST3lwN21b6mKkAR4-11" value="&lt;font style=&quot;font-size: 25px;&quot;&gt;.1....2....3....&lt;span style=&quot;color: rgba(0, 0, 0, 0); font-family: monospace; font-size: 0px; text-align: start; text-wrap-mode: nowrap;&quot;&gt;%3CmxGraphModel%3E%3Croot%3E%3CmxCell%20id%3D%220%22%2F%3E%3CmxCell%20id%3D%221%22%20parent%3D%220%22%2F%3E%3CmxCell%20id%3D%222%22%20value%3D%22%22%20style%3D%22rounded%3D0%3BwhiteSpace%3Dwrap%3Bhtml%3D1%3B%22%20vertex%3D%221%22%20parent%3D%221%22%3E%3CmxGeometry%20x%3D%22200%22%20y%3D%22210%22%20width%3D%2240%22%20height%3D%22200%22%20as%3D%22geometry%22%2F%3E%3C%2FmxCell%3E%3C%2Froot%3E%3C%2FmxGraphModel%3E&lt;/span&gt;4....5.&lt;/font&gt;" style="rounded=0;whiteSpace=wrap;html=1;" vertex="1" parent="1">
          <mxGeometry x="790" y="940" width="200" height="40" as="geometry" />
        </mxCell>
        <mxCell id="pt1OST3lwN21b6mKkAR4-12" value="&lt;font style=&quot;font-size: 25px;&quot;&gt;.1....2....3....&lt;span style=&quot;color: rgba(0, 0, 0, 0); font-family: monospace; font-size: 0px; text-align: start; text-wrap-mode: nowrap;&quot;&gt;%3CmxGraphModel%3E%3Croot%3E%3CmxCell%20id%3D%220%22%2F%3E%3CmxCell%20id%3D%221%22%20parent%3D%220%22%2F%3E%3CmxCell%20id%3D%222%22%20value%3D%22%22%20style%3D%22rounded%3D0%3BwhiteSpace%3Dwrap%3Bhtml%3D1%3B%22%20vertex%3D%221%22%20parent%3D%221%22%3E%3CmxGeometry%20x%3D%22200%22%20y%3D%22210%22%20width%3D%2240%22%20height%3D%22200%22%20as%3D%22geometry%22%2F%3E%3C%2FmxCell%3E%3C%2Froot%3E%3C%2FmxGraphModel%3E&lt;/span&gt;4....5.&lt;/font&gt;" style="rounded=0;whiteSpace=wrap;html=1;rotation=-90;" vertex="1" parent="1">
          <mxGeometry x="-20" y="160" width="200" height="40" as="geometry" />
        </mxCell>
        <mxCell id="pt1OST3lwN21b6mKkAR4-14" value="&lt;font style=&quot;font-size: 25px;&quot;&gt;.1....2....3....&lt;span style=&quot;color: rgba(0, 0, 0, 0); font-family: monospace; font-size: 0px; text-align: start; text-wrap-mode: nowrap;&quot;&gt;%3CmxGraphModel%3E%3Croot%3E%3CmxCell%20id%3D%220%22%2F%3E%3CmxCell%20id%3D%221%22%20parent%3D%220%22%2F%3E%3CmxCell%20id%3D%222%22%20value%3D%22%22%20style%3D%22rounded%3D0%3BwhiteSpace%3Dwrap%3Bhtml%3D1%3B%22%20vertex%3D%221%22%20parent%3D%221%22%3E%3CmxGeometry%20x%3D%22200%22%20y%3D%22210%22%20width%3D%2240%22%20height%3D%22200%22%20as%3D%22geometry%22%2F%3E%3C%2FmxCell%3E%3C%2Froot%3E%3C%2FmxGraphModel%3E&lt;/span&gt;4....5.&lt;/font&gt;" style="rounded=0;whiteSpace=wrap;html=1;rotation=-90;" vertex="1" parent="1">
          <mxGeometry x="40" y="160" width="200" height="40" as="geometry" />
        </mxCell>
        <mxCell id="pt1OST3lwN21b6mKkAR4-15" value="&lt;font style=&quot;font-size: 25px;&quot;&gt;.1....2....3....&lt;span style=&quot;color: rgba(0, 0, 0, 0); font-family: monospace; font-size: 0px; text-align: start; text-wrap-mode: nowrap;&quot;&gt;%3CmxGraphModel%3E%3Croot%3E%3CmxCell%20id%3D%220%22%2F%3E%3CmxCell%20id%3D%221%22%20parent%3D%220%22%2F%3E%3CmxCell%20id%3D%222%22%20value%3D%22%22%20style%3D%22rounded%3D0%3BwhiteSpace%3Dwrap%3Bhtml%3D1%3B%22%20vertex%3D%221%22%20parent%3D%221%22%3E%3CmxGeometry%20x%3D%22200%22%20y%3D%22210%22%20width%3D%2240%22%20height%3D%22200%22%20as%3D%22geometry%22%2F%3E%3C%2FmxCell%3E%3C%2Froot%3E%3C%2FmxGraphModel%3E&lt;/span&gt;4....5.&lt;/font&gt;" style="rounded=0;whiteSpace=wrap;html=1;rotation=-90;" vertex="1" parent="1">
          <mxGeometry x="100" y="160" width="200" height="40" as="geometry" />
        </mxCell>
        <mxCell id="pt1OST3lwN21b6mKkAR4-16" value="&lt;font style=&quot;font-size: 25px;&quot;&gt;105&lt;/font&gt;" style="ellipse;whiteSpace=wrap;html=1;" vertex="1" parent="1">
          <mxGeometry x="100" y="290" width="80" height="40" as="geometry" />
        </mxCell>
        <mxCell id="pt1OST3lwN21b6mKkAR4-18" value="&lt;span style=&quot;font-size: 25px;&quot;&gt;&amp;nbsp;STR&lt;/span&gt;" style="rounded=1;whiteSpace=wrap;html=1;verticalAlign=top;" vertex="1" parent="1">
          <mxGeometry x="40" y="360" width="200" height="290" as="geometry" />
        </mxCell>
        <mxCell id="pt1OST3lwN21b6mKkAR4-19" value="&lt;font style=&quot;font-size: 25px;&quot;&gt;.1....2....3....&lt;span style=&quot;color: rgba(0, 0, 0, 0); font-family: monospace; font-size: 0px; text-align: start; text-wrap-mode: nowrap;&quot;&gt;%3CmxGraphModel%3E%3Croot%3E%3CmxCell%20id%3D%220%22%2F%3E%3CmxCell%20id%3D%221%22%20parent%3D%220%22%2F%3E%3CmxCell%20id%3D%222%22%20value%3D%22%22%20style%3D%22rounded%3D0%3BwhiteSpace%3Dwrap%3Bhtml%3D1%3B%22%20vertex%3D%221%22%20parent%3D%221%22%3E%3CmxGeometry%20x%3D%22200%22%20y%3D%22210%22%20width%3D%2240%22%20height%3D%22200%22%20as%3D%22geometry%22%2F%3E%3C%2FmxCell%3E%3C%2Froot%3E%3C%2FmxGraphModel%3E&lt;/span&gt;4....5.&lt;/font&gt;" style="rounded=0;whiteSpace=wrap;html=1;rotation=-90;" vertex="1" parent="1">
          <mxGeometry x="-30" y="480" width="200" height="40" as="geometry" />
        </mxCell>
        <mxCell id="pt1OST3lwN21b6mKkAR4-20" value="&lt;font style=&quot;font-size: 25px;&quot;&gt;.1....2....3....&lt;span style=&quot;color: rgba(0, 0, 0, 0); font-family: monospace; font-size: 0px; text-align: start; text-wrap-mode: nowrap;&quot;&gt;%3CmxGraphModel%3E%3Croot%3E%3CmxCell%20id%3D%220%22%2F%3E%3CmxCell%20id%3D%221%22%20parent%3D%220%22%2F%3E%3CmxCell%20id%3D%222%22%20value%3D%22%22%20style%3D%22rounded%3D0%3BwhiteSpace%3Dwrap%3Bhtml%3D1%3B%22%20vertex%3D%221%22%20parent%3D%221%22%3E%3CmxGeometry%20x%3D%22200%22%20y%3D%22210%22%20width%3D%2240%22%20height%3D%22200%22%20as%3D%22geometry%22%2F%3E%3C%2FmxCell%3E%3C%2Froot%3E%3C%2FmxGraphModel%3E&lt;/span&gt;4....5.&lt;/font&gt;" style="rounded=0;whiteSpace=wrap;html=1;rotation=-90;" vertex="1" parent="1">
          <mxGeometry x="40" y="480" width="200" height="40" as="geometry" />
        </mxCell>
        <mxCell id="pt1OST3lwN21b6mKkAR4-21" value="&lt;font style=&quot;font-size: 25px;&quot;&gt;.1....2....3....&lt;span style=&quot;color: rgba(0, 0, 0, 0); font-family: monospace; font-size: 0px; text-align: start; text-wrap-mode: nowrap;&quot;&gt;%3CmxGraphModel%3E%3Croot%3E%3CmxCell%20id%3D%220%22%2F%3E%3CmxCell%20id%3D%221%22%20parent%3D%220%22%2F%3E%3CmxCell%20id%3D%222%22%20value%3D%22%22%20style%3D%22rounded%3D0%3BwhiteSpace%3Dwrap%3Bhtml%3D1%3B%22%20vertex%3D%221%22%20parent%3D%221%22%3E%3CmxGeometry%20x%3D%22200%22%20y%3D%22210%22%20width%3D%2240%22%20height%3D%22200%22%20as%3D%22geometry%22%2F%3E%3C%2FmxCell%3E%3C%2Froot%3E%3C%2FmxGraphModel%3E&lt;/span&gt;4....5.&lt;/font&gt;" style="rounded=0;whiteSpace=wrap;html=1;rotation=-90;" vertex="1" parent="1">
          <mxGeometry x="100" y="480" width="200" height="40" as="geometry" />
        </mxCell>
        <mxCell id="pt1OST3lwN21b6mKkAR4-22" value="&lt;font style=&quot;font-size: 25px;&quot;&gt;+5&lt;/font&gt;" style="ellipse;whiteSpace=wrap;html=1;" vertex="1" parent="1">
          <mxGeometry x="100" y="610" width="80" height="40" as="geometry" />
        </mxCell>
        <mxCell id="pt1OST3lwN21b6mKkAR4-23" value="&lt;span style=&quot;font-size: 25px;&quot;&gt;&amp;nbsp;Max HP&lt;/span&gt;" style="rounded=1;whiteSpace=wrap;html=1;verticalAlign=top;" vertex="1" parent="1">
          <mxGeometry x="860" y="250" width="200" height="290" as="geometry" />
        </mxCell>
        <mxCell id="pt1OST3lwN21b6mKkAR4-26" value="&lt;font style=&quot;font-size: 25px;&quot;&gt;.1....2....3....&lt;span style=&quot;color: rgba(0, 0, 0, 0); font-family: monospace; font-size: 0px; text-align: start; text-wrap-mode: nowrap;&quot;&gt;%3CmxGraphModel%3E%3Croot%3E%3CmxCell%20id%3D%220%22%2F%3E%3CmxCell%20id%3D%221%22%20parent%3D%220%22%2F%3E%3CmxCell%20id%3D%222%22%20value%3D%22%22%20style%3D%22rounded%3D0%3BwhiteSpace%3Dwrap%3Bhtml%3D1%3B%22%20vertex%3D%221%22%20parent%3D%221%22%3E%3CmxGeometry%20x%3D%22200%22%20y%3D%22210%22%20width%3D%2240%22%20height%3D%22200%22%20as%3D%22geometry%22%2F%3E%3C%2FmxCell%3E%3C%2Froot%3E%3C%2FmxGraphModel%3E&lt;/span&gt;4....5.&lt;/font&gt;" style="rounded=0;whiteSpace=wrap;html=1;rotation=0;" vertex="1" parent="1">
          <mxGeometry x="860" y="445" width="200" height="40" as="geometry" />
        </mxCell>
        <mxCell id="pt1OST3lwN21b6mKkAR4-27" value="&lt;font style=&quot;font-size: 25px;&quot;&gt;+5&lt;/font&gt;" style="ellipse;whiteSpace=wrap;html=1;" vertex="1" parent="1">
          <mxGeometry x="920" y="500" width="80" height="40" as="geometry" />
        </mxCell>
        <mxCell id="pt1OST3lwN21b6mKkAR4-28" value="&lt;font style=&quot;font-size: 25px;&quot;&gt;.1....2....3....&lt;span style=&quot;color: rgba(0, 0, 0, 0); font-family: monospace; font-size: 0px; text-align: start; text-wrap-mode: nowrap;&quot;&gt;%3CmxGraphModel%3E%3Croot%3E%3CmxCell%20id%3D%220%22%2F%3E%3CmxCell%20id%3D%221%22%20parent%3D%220%22%2F%3E%3CmxCell%20id%3D%222%22%20value%3D%22%22%20style%3D%22rounded%3D0%3BwhiteSpace%3Dwrap%3Bhtml%3D1%3B%22%20vertex%3D%221%22%20parent%3D%221%22%3E%3CmxGeometry%20x%3D%22200%22%20y%3D%22210%22%20width%3D%2240%22%20height%3D%22200%22%20as%3D%22geometry%22%2F%3E%3C%2FmxCell%3E%3C%2Froot%3E%3C%2FmxGraphModel%3E&lt;/span&gt;4....5.&lt;/font&gt;" style="rounded=0;whiteSpace=wrap;html=1;" vertex="1" parent="1">
          <mxGeometry x="800" y="870" width="200" height="40" as="geometry" />
        </mxCell>
        <mxCell id="pt1OST3lwN21b6mKkAR4-29" value="&lt;span style=&quot;font-size: 25px;&quot;&gt;DEX&lt;/span&gt;" style="rounded=1;whiteSpace=wrap;html=1;verticalAlign=top;" vertex="1" parent="1">
          <mxGeometry x="280" y="360" width="160" height="290" as="geometry" />
        </mxCell>
        <mxCell id="pt1OST3lwN21b6mKkAR4-30" value="&lt;font style=&quot;font-size: 25px;&quot;&gt;.1....2....3....&lt;span style=&quot;color: rgba(0, 0, 0, 0); font-family: monospace; font-size: 0px; text-align: start; text-wrap-mode: nowrap;&quot;&gt;%3CmxGraphModel%3E%3Croot%3E%3CmxCell%20id%3D%220%22%2F%3E%3CmxCell%20id%3D%221%22%20parent%3D%220%22%2F%3E%3CmxCell%20id%3D%222%22%20value%3D%22%22%20style%3D%22rounded%3D0%3BwhiteSpace%3Dwrap%3Bhtml%3D1%3B%22%20vertex%3D%221%22%20parent%3D%221%22%3E%3CmxGeometry%20x%3D%22200%22%20y%3D%22210%22%20width%3D%2240%22%20height%3D%22200%22%20as%3D%22geometry%22%2F%3E%3C%2FmxCell%3E%3C%2Froot%3E%3C%2FmxGraphModel%3E&lt;/span&gt;4....5.&lt;/font&gt;" style="rounded=0;whiteSpace=wrap;html=1;rotation=-90;" vertex="1" parent="1">
          <mxGeometry x="200" y="480" width="200" height="40" as="geometry" />
        </mxCell>
        <mxCell id="pt1OST3lwN21b6mKkAR4-31" value="&lt;font style=&quot;font-size: 25px;&quot;&gt;.1....2....3....&lt;span style=&quot;color: rgba(0, 0, 0, 0); font-family: monospace; font-size: 0px; text-align: start; text-wrap-mode: nowrap;&quot;&gt;%3CmxGraphModel%3E%3Croot%3E%3CmxCell%20id%3D%220%22%2F%3E%3CmxCell%20id%3D%221%22%20parent%3D%220%22%2F%3E%3CmxCell%20id%3D%222%22%20value%3D%22%22%20style%3D%22rounded%3D0%3BwhiteSpace%3Dwrap%3Bhtml%3D1%3B%22%20vertex%3D%221%22%20parent%3D%221%22%3E%3CmxGeometry%20x%3D%22200%22%20y%3D%22210%22%20width%3D%2240%22%20height%3D%22200%22%20as%3D%22geometry%22%2F%3E%3C%2FmxCell%3E%3C%2Froot%3E%3C%2FmxGraphModel%3E&lt;/span&gt;4....5.&lt;/font&gt;" style="rounded=0;whiteSpace=wrap;html=1;rotation=-90;" vertex="1" parent="1">
          <mxGeometry x="260" y="480" width="200" height="40" as="geometry" />
        </mxCell>
        <mxCell id="pt1OST3lwN21b6mKkAR4-32" value="&lt;font style=&quot;font-size: 25px;&quot;&gt;.1....2....3....&lt;span style=&quot;color: rgba(0, 0, 0, 0); font-family: monospace; font-size: 0px; text-align: start; text-wrap-mode: nowrap;&quot;&gt;%3CmxGraphModel%3E%3Croot%3E%3CmxCell%20id%3D%220%22%2F%3E%3CmxCell%20id%3D%221%22%20parent%3D%220%22%2F%3E%3CmxCell%20id%3D%222%22%20value%3D%22%22%20style%3D%22rounded%3D0%3BwhiteSpace%3Dwrap%3Bhtml%3D1%3B%22%20vertex%3D%221%22%20parent%3D%221%22%3E%3CmxGeometry%20x%3D%22200%22%20y%3D%22210%22%20width%3D%2240%22%20height%3D%22200%22%20as%3D%22geometry%22%2F%3E%3C%2FmxCell%3E%3C%2Froot%3E%3C%2FmxGraphModel%3E&lt;/span&gt;4....5.&lt;/font&gt;" style="rounded=0;whiteSpace=wrap;html=1;rotation=-90;" vertex="1" parent="1">
          <mxGeometry x="320" y="480" width="200" height="40" as="geometry" />
        </mxCell>
        <mxCell id="pt1OST3lwN21b6mKkAR4-33" value="&lt;font style=&quot;font-size: 25px;&quot;&gt;+5&lt;/font&gt;" style="ellipse;whiteSpace=wrap;html=1;" vertex="1" parent="1">
          <mxGeometry x="320" y="610" width="80" height="40" as="geometry" />
        </mxCell>
        <mxCell id="pt1OST3lwN21b6mKkAR4-34" value="&lt;font style=&quot;font-size: 25px;&quot;&gt;.1....2....3....&lt;span style=&quot;color: rgba(0, 0, 0, 0); font-family: monospace; font-size: 0px; text-align: start; text-wrap-mode: nowrap;&quot;&gt;%3CmxGraphModel%3E%3Croot%3E%3CmxCell%20id%3D%220%22%2F%3E%3CmxCell%20id%3D%221%22%20parent%3D%220%22%2F%3E%3CmxCell%20id%3D%222%22%20value%3D%22%22%20style%3D%22rounded%3D0%3BwhiteSpace%3Dwrap%3Bhtml%3D1%3B%22%20vertex%3D%221%22%20parent%3D%221%22%3E%3CmxGeometry%20x%3D%22200%22%20y%3D%22210%22%20width%3D%2240%22%20height%3D%22200%22%20as%3D%22geometry%22%2F%3E%3C%2FmxCell%3E%3C%2Froot%3E%3C%2FmxGraphModel%3E&lt;/span&gt;4....5.&lt;/font&gt;" style="rounded=0;whiteSpace=wrap;html=1;rotation=0;" vertex="1" parent="1">
          <mxGeometry x="860" y="380" width="200" height="40" as="geometry" />
        </mxCell>
        <mxCell id="pt1OST3lwN21b6mKkAR4-35" value="&lt;font style=&quot;font-size: 25px;&quot;&gt;.1....2....3....&lt;span style=&quot;color: rgba(0, 0, 0, 0); font-family: monospace; font-size: 0px; text-align: start; text-wrap-mode: nowrap;&quot;&gt;%3CmxGraphModel%3E%3Croot%3E%3CmxCell%20id%3D%220%22%2F%3E%3CmxCell%20id%3D%221%22%20parent%3D%220%22%2F%3E%3CmxCell%20id%3D%222%22%20value%3D%22%22%20style%3D%22rounded%3D0%3BwhiteSpace%3Dwrap%3Bhtml%3D1%3B%22%20vertex%3D%221%22%20parent%3D%221%22%3E%3CmxGeometry%20x%3D%22200%22%20y%3D%22210%22%20width%3D%2240%22%20height%3D%22200%22%20as%3D%22geometry%22%2F%3E%3C%2FmxCell%3E%3C%2Froot%3E%3C%2FmxGraphModel%3E&lt;/span&gt;4....5.&lt;/font&gt;" style="rounded=0;whiteSpace=wrap;html=1;rotation=0;" vertex="1" parent="1">
          <mxGeometry x="860" y="315" width="200" height="40" as="geometry" />
        </mxCell>
        <mxCell id="pt1OST3lwN21b6mKkAR4-36" value="&lt;span style=&quot;font-size: 25px;&quot;&gt;Athletics&amp;nbsp;&lt;/span&gt;" style="rounded=1;whiteSpace=wrap;html=1;verticalAlign=top;align=right;" vertex="1" parent="1">
          <mxGeometry x="-240" y="800" width="200" height="100" as="geometry" />
        </mxCell>
        <mxCell id="pt1OST3lwN21b6mKkAR4-38" value="&lt;font style=&quot;font-size: 25px;&quot;&gt;+5&lt;/font&gt;" style="ellipse;whiteSpace=wrap;html=1;" vertex="1" parent="1">
          <mxGeometry x="-230" y="800" width="80" height="40" as="geometry" />
        </mxCell>
        <mxCell id="pt1OST3lwN21b6mKkAR4-40" value="&lt;font style=&quot;font-size: 25px;&quot;&gt;.1....2....3....&lt;span style=&quot;color: rgba(0, 0, 0, 0); font-family: monospace; font-size: 0px; text-align: start; text-wrap-mode: nowrap;&quot;&gt;%3CmxGraphModel%3E%3Croot%3E%3CmxCell%20id%3D%220%22%2F%3E%3CmxCell%20id%3D%221%22%20parent%3D%220%22%2F%3E%3CmxCell%20id%3D%222%22%20value%3D%22%22%20style%3D%22rounded%3D0%3BwhiteSpace%3Dwrap%3Bhtml%3D1%3B%22%20vertex%3D%221%22%20parent%3D%221%22%3E%3CmxGeometry%20x%3D%22200%22%20y%3D%22210%22%20width%3D%2240%22%20height%3D%22200%22%20as%3D%22geometry%22%2F%3E%3C%2FmxCell%3E%3C%2Froot%3E%3C%2FmxGraphModel%3E&lt;/span&gt;4....5.&lt;/font&gt;" style="rounded=0;whiteSpace=wrap;html=1;rotation=0;" vertex="1" parent="1">
          <mxGeometry x="-240" y="850" width="200" height="40" as="geometry" />
        </mxCell>
        <mxCell id="pt1OST3lwN21b6mKkAR4-41" value="&lt;span style=&quot;font-size: 25px;&quot;&gt;Athletics&amp;nbsp;&lt;/span&gt;" style="rounded=1;whiteSpace=wrap;html=1;verticalAlign=top;align=right;" vertex="1" parent="1">
          <mxGeometry x="-240" y="680" width="200" height="100" as="geometry" />
        </mxCell>
        <mxCell id="pt1OST3lwN21b6mKkAR4-42" value="&lt;font style=&quot;font-size: 25px;&quot;&gt;+5&lt;/font&gt;" style="ellipse;whiteSpace=wrap;html=1;" vertex="1" parent="1">
          <mxGeometry x="-230" y="680" width="80" height="40" as="geometry" />
        </mxCell>
        <mxCell id="pt1OST3lwN21b6mKkAR4-43" value="&lt;font style=&quot;font-size: 25px;&quot;&gt;.1....2....3....&lt;span style=&quot;color: rgba(0, 0, 0, 0); font-family: monospace; font-size: 0px; text-align: start; text-wrap-mode: nowrap;&quot;&gt;%3CmxGraphModel%3E%3Croot%3E%3CmxCell%20id%3D%220%22%2F%3E%3CmxCell%20id%3D%221%22%20parent%3D%220%22%2F%3E%3CmxCell%20id%3D%222%22%20value%3D%22%22%20style%3D%22rounded%3D0%3BwhiteSpace%3Dwrap%3Bhtml%3D1%3B%22%20vertex%3D%221%22%20parent%3D%221%22%3E%3CmxGeometry%20x%3D%22200%22%20y%3D%22210%22%20width%3D%2240%22%20height%3D%22200%22%20as%3D%22geometry%22%2F%3E%3C%2FmxCell%3E%3C%2Froot%3E%3C%2FmxGraphModel%3E&lt;/span&gt;4....5.&lt;/font&gt;" style="rounded=0;whiteSpace=wrap;html=1;rotation=0;" vertex="1" parent="1">
          <mxGeometry x="-240" y="730" width="200" height="40" as="geometry" />
        </mxCell>
        <mxCell id="pt1OST3lwN21b6mKkAR4-44" value="&lt;span style=&quot;font-size: 25px;&quot;&gt;AC&lt;/span&gt;" style="rounded=1;whiteSpace=wrap;html=1;verticalAlign=top;" vertex="1" parent="1">
          <mxGeometry x="280" y="35" width="160" height="290" as="geometry" />
        </mxCell>
        <mxCell id="pt1OST3lwN21b6mKkAR4-46" value="&lt;font style=&quot;font-size: 25px;&quot;&gt;.1....2....3....&lt;span style=&quot;color: rgba(0, 0, 0, 0); font-family: monospace; font-size: 0px; text-align: start; text-wrap-mode: nowrap;&quot;&gt;%3CmxGraphModel%3E%3Croot%3E%3CmxCell%20id%3D%220%22%2F%3E%3CmxCell%20id%3D%221%22%20parent%3D%220%22%2F%3E%3CmxCell%20id%3D%222%22%20value%3D%22%22%20style%3D%22rounded%3D0%3BwhiteSpace%3Dwrap%3Bhtml%3D1%3B%22%20vertex%3D%221%22%20parent%3D%221%22%3E%3CmxGeometry%20x%3D%22200%22%20y%3D%22210%22%20width%3D%2240%22%20height%3D%22200%22%20as%3D%22geometry%22%2F%3E%3C%2FmxCell%3E%3C%2Froot%3E%3C%2FmxGraphModel%3E&lt;/span&gt;4....5.&lt;/font&gt;" style="rounded=0;whiteSpace=wrap;html=1;rotation=-90;" vertex="1" parent="1">
          <mxGeometry x="220" y="160" width="200" height="40" as="geometry" />
        </mxCell>
        <mxCell id="pt1OST3lwN21b6mKkAR4-47" value="&lt;font style=&quot;font-size: 25px;&quot;&gt;.1....2....3....&lt;span style=&quot;color: rgba(0, 0, 0, 0); font-family: monospace; font-size: 0px; text-align: start; text-wrap-mode: nowrap;&quot;&gt;%3CmxGraphModel%3E%3Croot%3E%3CmxCell%20id%3D%220%22%2F%3E%3CmxCell%20id%3D%221%22%20parent%3D%220%22%2F%3E%3CmxCell%20id%3D%222%22%20value%3D%22%22%20style%3D%22rounded%3D0%3BwhiteSpace%3Dwrap%3Bhtml%3D1%3B%22%20vertex%3D%221%22%20parent%3D%221%22%3E%3CmxGeometry%20x%3D%22200%22%20y%3D%22210%22%20width%3D%2240%22%20height%3D%22200%22%20as%3D%22geometry%22%2F%3E%3C%2FmxCell%3E%3C%2Froot%3E%3C%2FmxGraphModel%3E&lt;/span&gt;4....5.&lt;/font&gt;" style="rounded=0;whiteSpace=wrap;html=1;rotation=-90;" vertex="1" parent="1">
          <mxGeometry x="300" y="160" width="200" height="40" as="geometry" />
        </mxCell>
        <mxCell id="pt1OST3lwN21b6mKkAR4-49" value="&lt;font style=&quot;font-size: 25px;&quot;&gt;17&lt;/font&gt;" style="ellipse;whiteSpace=wrap;html=1;" vertex="1" parent="1">
          <mxGeometry x="320" y="285" width="80" height="40" as="geometry" />
        </mxCell>
        <mxCell id="pt1OST3lwN21b6mKkAR4-50" value="&lt;span style=&quot;font-size: 25px;&quot;&gt;AC&lt;/span&gt;" style="rounded=1;whiteSpace=wrap;html=1;verticalAlign=top;" vertex="1" parent="1">
          <mxGeometry x="480" y="35" width="140" height="290" as="geometry" />
        </mxCell>
        <mxCell id="pt1OST3lwN21b6mKkAR4-51" value="&lt;font style=&quot;font-size: 25px;&quot;&gt;.1....2....3....&lt;span style=&quot;color: rgba(0, 0, 0, 0); font-family: monospace; font-size: 0px; text-align: start; text-wrap-mode: nowrap;&quot;&gt;%3CmxGraphModel%3E%3Croot%3E%3CmxCell%20id%3D%220%22%2F%3E%3CmxCell%20id%3D%221%22%20parent%3D%220%22%2F%3E%3CmxCell%20id%3D%222%22%20value%3D%22%22%20style%3D%22rounded%3D0%3BwhiteSpace%3Dwrap%3Bhtml%3D1%3B%22%20vertex%3D%221%22%20parent%3D%221%22%3E%3CmxGeometry%20x%3D%22200%22%20y%3D%22210%22%20width%3D%2240%22%20height%3D%22200%22%20as%3D%22geometry%22%2F%3E%3C%2FmxCell%3E%3C%2Froot%3E%3C%2FmxGraphModel%3E&lt;/span&gt;4....5.&lt;/font&gt;" style="rounded=0;whiteSpace=wrap;html=1;rotation=-90;" vertex="1" parent="1">
          <mxGeometry x="420" y="160" width="200" height="40" as="geometry" />
        </mxCell>
        <mxCell id="pt1OST3lwN21b6mKkAR4-52" value="&lt;font style=&quot;font-size: 25px;&quot;&gt;.1....2....3....&lt;span style=&quot;color: rgba(0, 0, 0, 0); font-family: monospace; font-size: 0px; text-align: start; text-wrap-mode: nowrap;&quot;&gt;%3CmxGraphModel%3E%3Croot%3E%3CmxCell%20id%3D%220%22%2F%3E%3CmxCell%20id%3D%221%22%20parent%3D%220%22%2F%3E%3CmxCell%20id%3D%222%22%20value%3D%22%22%20style%3D%22rounded%3D0%3BwhiteSpace%3Dwrap%3Bhtml%3D1%3B%22%20vertex%3D%221%22%20parent%3D%221%22%3E%3CmxGeometry%20x%3D%22200%22%20y%3D%22210%22%20width%3D%2240%22%20height%3D%22200%22%20as%3D%22geometry%22%2F%3E%3C%2FmxCell%3E%3C%2Froot%3E%3C%2FmxGraphModel%3E&lt;/span&gt;4....5.&lt;/font&gt;" style="rounded=0;whiteSpace=wrap;html=1;rotation=-90;" vertex="1" parent="1">
          <mxGeometry x="480" y="160" width="200" height="40" as="geometry" />
        </mxCell>
        <mxCell id="pt1OST3lwN21b6mKkAR4-53" value="&lt;font style=&quot;font-size: 25px;&quot;&gt;17&lt;/font&gt;" style="ellipse;whiteSpace=wrap;html=1;" vertex="1" parent="1">
          <mxGeometry x="510" y="285" width="80" height="40" as="geometry" />
        </mxCell>
        <mxCell id="pt1OST3lwN21b6mKkAR4-54" value="&lt;span style=&quot;font-size: 25px;&quot;&gt;Athletics&amp;nbsp;&lt;/span&gt;" style="rounded=1;whiteSpace=wrap;html=1;verticalAlign=top;align=center;" vertex="1" parent="1">
          <mxGeometry x="-240" y="930" width="200" height="90" as="geometry" />
        </mxCell>
        <mxCell id="pt1OST3lwN21b6mKkAR4-55" value="&lt;font style=&quot;font-size: 25px;&quot;&gt;+P&lt;/font&gt;" style="ellipse;whiteSpace=wrap;html=1;" vertex="1" parent="1">
          <mxGeometry x="-240" y="930" width="40" height="40" as="geometry" />
        </mxCell>
        <mxCell id="pt1OST3lwN21b6mKkAR4-56" value="&lt;font style=&quot;font-size: 25px;&quot;&gt;.1....2....3....&lt;span style=&quot;color: rgba(0, 0, 0, 0); font-family: monospace; font-size: 0px; text-align: start; text-wrap-mode: nowrap;&quot;&gt;%3CmxGraphModel%3E%3Croot%3E%3CmxCell%20id%3D%220%22%2F%3E%3CmxCell%20id%3D%221%22%20parent%3D%220%22%2F%3E%3CmxCell%20id%3D%222%22%20value%3D%22%22%20style%3D%22rounded%3D0%3BwhiteSpace%3Dwrap%3Bhtml%3D1%3B%22%20vertex%3D%221%22%20parent%3D%221%22%3E%3CmxGeometry%20x%3D%22200%22%20y%3D%22210%22%20width%3D%2240%22%20height%3D%22200%22%20as%3D%22geometry%22%2F%3E%3C%2FmxCell%3E%3C%2Froot%3E%3C%2FmxGraphModel%3E&lt;/span&gt;4....5.&lt;/font&gt;" style="rounded=0;whiteSpace=wrap;html=1;rotation=0;" vertex="1" parent="1">
          <mxGeometry x="-240" y="970" width="200" height="40" as="geometry" />
        </mxCell>
        <mxCell id="pt1OST3lwN21b6mKkAR4-57" value="&lt;span style=&quot;font-size: 25px;&quot;&gt;INT&lt;/span&gt;" style="rounded=1;whiteSpace=wrap;html=1;verticalAlign=top;" vertex="1" parent="1">
          <mxGeometry x="595" y="355" width="160" height="290" as="geometry" />
        </mxCell>
        <mxCell id="pt1OST3lwN21b6mKkAR4-58" value="&lt;font style=&quot;font-size: 25px;&quot;&gt;.1....2....3....&lt;span style=&quot;color: rgba(0, 0, 0, 0); font-family: monospace; font-size: 0px; text-align: start; text-wrap-mode: nowrap;&quot;&gt;%3CmxGraphModel%3E%3Croot%3E%3CmxCell%20id%3D%220%22%2F%3E%3CmxCell%20id%3D%221%22%20parent%3D%220%22%2F%3E%3CmxCell%20id%3D%222%22%20value%3D%22%22%20style%3D%22rounded%3D0%3BwhiteSpace%3Dwrap%3Bhtml%3D1%3B%22%20vertex%3D%221%22%20parent%3D%221%22%3E%3CmxGeometry%20x%3D%22200%22%20y%3D%22210%22%20width%3D%2240%22%20height%3D%22200%22%20as%3D%22geometry%22%2F%3E%3C%2FmxCell%3E%3C%2Froot%3E%3C%2FmxGraphModel%3E&lt;/span&gt;4....5.&lt;/font&gt;" style="rounded=0;whiteSpace=wrap;html=1;rotation=-90;" vertex="1" parent="1">
          <mxGeometry x="540" y="480" width="200" height="40" as="geometry" />
        </mxCell>
        <mxCell id="pt1OST3lwN21b6mKkAR4-59" value="&lt;font style=&quot;font-size: 25px;&quot;&gt;.1....2....3....&lt;span style=&quot;color: rgba(0, 0, 0, 0); font-family: monospace; font-size: 0px; text-align: start; text-wrap-mode: nowrap;&quot;&gt;%3CmxGraphModel%3E%3Croot%3E%3CmxCell%20id%3D%220%22%2F%3E%3CmxCell%20id%3D%221%22%20parent%3D%220%22%2F%3E%3CmxCell%20id%3D%222%22%20value%3D%22%22%20style%3D%22rounded%3D0%3BwhiteSpace%3Dwrap%3Bhtml%3D1%3B%22%20vertex%3D%221%22%20parent%3D%221%22%3E%3CmxGeometry%20x%3D%22200%22%20y%3D%22210%22%20width%3D%2240%22%20height%3D%22200%22%20as%3D%22geometry%22%2F%3E%3C%2FmxCell%3E%3C%2Froot%3E%3C%2FmxGraphModel%3E&lt;/span&gt;4....5.&lt;/font&gt;" style="rounded=0;whiteSpace=wrap;html=1;rotation=-90;" vertex="1" parent="1">
          <mxGeometry x="605" y="480" width="200" height="40" as="geometry" />
        </mxCell>
        <mxCell id="pt1OST3lwN21b6mKkAR4-60" value="&lt;font style=&quot;font-size: 25px;&quot;&gt;17&lt;/font&gt;" style="ellipse;whiteSpace=wrap;html=1;" vertex="1" parent="1">
          <mxGeometry x="635" y="605" width="80" height="40" as="geometry" />
        </mxCell>
        <mxCell id="pt1OST3lwN21b6mKkAR4-67" value="&lt;span style=&quot;font-size: 25px;&quot;&gt;STR&lt;/span&gt;" style="rounded=1;whiteSpace=wrap;html=1;verticalAlign=top;" vertex="1" parent="1">
          <mxGeometry x="-240" y="1180" width="160" height="290" as="geometry" />
        </mxCell>
        <mxCell id="pt1OST3lwN21b6mKkAR4-68" value="&lt;font style=&quot;font-size: 25px;&quot;&gt;.1....2....3....&lt;span style=&quot;color: rgba(0, 0, 0, 0); font-family: monospace; font-size: 0px; text-align: start; text-wrap-mode: nowrap;&quot;&gt;%3CmxGraphModel%3E%3Croot%3E%3CmxCell%20id%3D%220%22%2F%3E%3CmxCell%20id%3D%221%22%20parent%3D%220%22%2F%3E%3CmxCell%20id%3D%222%22%20value%3D%22%22%20style%3D%22rounded%3D0%3BwhiteSpace%3Dwrap%3Bhtml%3D1%3B%22%20vertex%3D%221%22%20parent%3D%221%22%3E%3CmxGeometry%20x%3D%22200%22%20y%3D%22210%22%20width%3D%2240%22%20height%3D%22200%22%20as%3D%22geometry%22%2F%3E%3C%2FmxCell%3E%3C%2Froot%3E%3C%2FmxGraphModel%3E&lt;/span&gt;4....5.&lt;/font&gt;" style="rounded=0;whiteSpace=wrap;html=1;rotation=-90;" vertex="1" parent="1">
          <mxGeometry x="-260" y="1300" width="200" height="40" as="geometry" />
        </mxCell>
        <mxCell id="pt1OST3lwN21b6mKkAR4-69" value="&lt;font style=&quot;font-size: 25px;&quot;&gt;.1....2....3....&lt;span style=&quot;color: rgba(0, 0, 0, 0); font-family: monospace; font-size: 0px; text-align: start; text-wrap-mode: nowrap;&quot;&gt;%3CmxGraphModel%3E%3Croot%3E%3CmxCell%20id%3D%220%22%2F%3E%3CmxCell%20id%3D%221%22%20parent%3D%220%22%2F%3E%3CmxCell%20id%3D%222%22%20value%3D%22%22%20style%3D%22rounded%3D0%3BwhiteSpace%3Dwrap%3Bhtml%3D1%3B%22%20vertex%3D%221%22%20parent%3D%221%22%3E%3CmxGeometry%20x%3D%22200%22%20y%3D%22210%22%20width%3D%2240%22%20height%3D%22200%22%20as%3D%22geometry%22%2F%3E%3C%2FmxCell%3E%3C%2Froot%3E%3C%2FmxGraphModel%3E&lt;/span&gt;4....5.&lt;/font&gt;" style="rounded=0;whiteSpace=wrap;html=1;rotation=-90;" vertex="1" parent="1">
          <mxGeometry x="-210" y="1300" width="200" height="40" as="geometry" />
        </mxCell>
        <mxCell id="pt1OST3lwN21b6mKkAR4-70" value="&lt;font style=&quot;font-size: 25px;&quot;&gt;17&lt;/font&gt;" style="ellipse;whiteSpace=wrap;html=1;" vertex="1" parent="1">
          <mxGeometry x="-200" y="1430" width="80" height="40" as="geometry" />
        </mxCell>
        <mxCell id="pt1OST3lwN21b6mKkAR4-71" value="&lt;font style=&quot;font-size: 25px;&quot;&gt;.1....2....3....&lt;span style=&quot;color: rgba(0, 0, 0, 0); font-family: monospace; font-size: 0px; text-align: start; text-wrap-mode: nowrap;&quot;&gt;%3CmxGraphModel%3E%3Croot%3E%3CmxCell%20id%3D%220%22%2F%3E%3CmxCell%20id%3D%221%22%20parent%3D%220%22%2F%3E%3CmxCell%20id%3D%222%22%20value%3D%22%22%20style%3D%22rounded%3D0%3BwhiteSpace%3Dwrap%3Bhtml%3D1%3B%22%20vertex%3D%221%22%20parent%3D%221%22%3E%3CmxGeometry%20x%3D%22200%22%20y%3D%22210%22%20width%3D%2240%22%20height%3D%22200%22%20as%3D%22geometry%22%2F%3E%3C%2FmxCell%3E%3C%2Froot%3E%3C%2FmxGraphModel%3E&lt;/span&gt;4....5.&lt;/font&gt;" style="rounded=0;whiteSpace=wrap;html=1;rotation=-90;" vertex="1" parent="1">
          <mxGeometry x="-320" y="1300" width="200" height="40" as="geometry" />
        </mxCell>
        <mxCell id="pt1OST3lwN21b6mKkAR4-72" value="&lt;span style=&quot;font-size: 25px;&quot;&gt;Athletics&amp;nbsp;&lt;/span&gt;" style="rounded=1;whiteSpace=wrap;html=1;verticalAlign=top;align=left;" vertex="1" parent="1">
          <mxGeometry x="-480" y="680" width="200" height="40" as="geometry" />
        </mxCell>
        <mxCell id="pt1OST3lwN21b6mKkAR4-73" value="&lt;span style=&quot;font-size: 25px;&quot;&gt;+P&lt;/span&gt;" style="ellipse;whiteSpace=wrap;html=1;" vertex="1" parent="1">
          <mxGeometry x="-350" y="680" width="70" height="40" as="geometry" />
        </mxCell>
        <mxCell id="pt1OST3lwN21b6mKkAR4-77" value="&lt;span style=&quot;font-size: 25px;&quot;&gt;Acrobatis&lt;/span&gt;" style="rounded=1;whiteSpace=wrap;html=1;verticalAlign=top;align=left;" vertex="1" parent="1">
          <mxGeometry x="-480" y="740" width="200" height="40" as="geometry" />
        </mxCell>
        <mxCell id="pt1OST3lwN21b6mKkAR4-78" value="&lt;span style=&quot;font-size: 25px;&quot;&gt;+P&lt;/span&gt;" style="ellipse;whiteSpace=wrap;html=1;" vertex="1" parent="1">
          <mxGeometry x="-350" y="740" width="70" height="40" as="geometry" />
        </mxCell>
        <mxCell id="pt1OST3lwN21b6mKkAR4-79" value="&lt;span style=&quot;font-size: 25px;&quot;&gt;S.o.H&lt;/span&gt;&lt;span style=&quot;color: rgba(0, 0, 0, 0); font-family: monospace; font-size: 0px; text-wrap-mode: nowrap;&quot;&gt;%3CmxGraphModel%3E%3Croot%3E%3CmxCell%20id%3D%220%22%2F%3E%3CmxCell%20id%3D%221%22%20parent%3D%220%22%2F%3E%3CmxCell%20id%3D%222%22%20value%3D%22%26lt%3Bspan%20style%3D%26quot%3Bfont-size%3A%2025px%3B%26quot%3B%26gt%3BAthletics%26amp%3Bnbsp%3B%26lt%3B%2Fspan%26gt%3B%22%20style%3D%22rounded%3D1%3BwhiteSpace%3Dwrap%3Bhtml%3D1%3BverticalAlign%3Dtop%3Balign%3Dleft%3B%22%20vertex%3D%221%22%20parent%3D%221%22%3E%3CmxGeometry%20x%3D%2240%22%20y%3D%221040%22%20width%3D%22200%22%20height%3D%2240%22%20as%3D%22geometry%22%2F%3E%3C%2FmxCell%3E%3CmxCell%20id%3D%223%22%20value%3D%22%26lt%3Bspan%20style%3D%26quot%3Bfont-size%3A%2025px%3B%26quot%3B%26gt%3B%2BP%26lt%3B%2Fspan%26gt%3B%22%20style%3D%22ellipse%3BwhiteSpace%3Dwrap%3Bhtml%3D1%3B%22%20vertex%3D%221%22%20parent%3D%221%22%3E%3CmxGeometry%20x%3D%22150%22%20y%3D%221040%22%20width%3D%2280%22%20height%3D%2240%22%20as%3D%22geometry%22%2F%3E%3C%2FmxCell%3E%3C%2Froot%3E%3C%2FmxGraphModel%3E&lt;/span&gt;" style="rounded=1;whiteSpace=wrap;html=1;verticalAlign=top;align=left;" vertex="1" parent="1">
          <mxGeometry x="-480" y="800" width="200" height="40" as="geometry" />
        </mxCell>
        <mxCell id="pt1OST3lwN21b6mKkAR4-80" value="&lt;span style=&quot;font-size: 25px;&quot;&gt;+P&lt;/span&gt;" style="ellipse;whiteSpace=wrap;html=1;" vertex="1" parent="1">
          <mxGeometry x="-350" y="800" width="70" height="40" as="geometry" />
        </mxCell>
        <mxCell id="pt1OST3lwN21b6mKkAR4-81" value="&lt;span style=&quot;font-size: 25px;&quot;&gt;Stealth&lt;/span&gt;" style="rounded=1;whiteSpace=wrap;html=1;verticalAlign=top;align=left;" vertex="1" parent="1">
          <mxGeometry x="-480" y="860" width="200" height="40" as="geometry" />
        </mxCell>
        <mxCell id="pt1OST3lwN21b6mKkAR4-82" value="&lt;span style=&quot;font-size: 25px;&quot;&gt;+P&lt;/span&gt;" style="ellipse;whiteSpace=wrap;html=1;" vertex="1" parent="1">
          <mxGeometry x="-350" y="860" width="70" height="40" as="geometry" />
        </mxCell>
        <mxCell id="pt1OST3lwN21b6mKkAR4-83" value="&lt;span style=&quot;font-size: 25px;&quot;&gt;&amp;nbsp;STR&lt;/span&gt;" style="rounded=1;whiteSpace=wrap;html=1;verticalAlign=top;" vertex="1" parent="1">
          <mxGeometry x="-250" y="360" width="200" height="290" as="geometry" />
        </mxCell>
        <mxCell id="pt1OST3lwN21b6mKkAR4-84" value="&lt;font style=&quot;font-size: 25px;&quot;&gt;.1....2....3....&lt;span style=&quot;color: rgba(0, 0, 0, 0); font-family: monospace; font-size: 0px; text-align: start; text-wrap-mode: nowrap;&quot;&gt;%3CmxGraphModel%3E%3Croot%3E%3CmxCell%20id%3D%220%22%2F%3E%3CmxCell%20id%3D%221%22%20parent%3D%220%22%2F%3E%3CmxCell%20id%3D%222%22%20value%3D%22%22%20style%3D%22rounded%3D0%3BwhiteSpace%3Dwrap%3Bhtml%3D1%3B%22%20vertex%3D%221%22%20parent%3D%221%22%3E%3CmxGeometry%20x%3D%22200%22%20y%3D%22210%22%20width%3D%2240%22%20height%3D%22200%22%20as%3D%22geometry%22%2F%3E%3C%2FmxCell%3E%3C%2Froot%3E%3C%2FmxGraphModel%3E&lt;/span&gt;4....5.&lt;/font&gt;" style="rounded=0;whiteSpace=wrap;html=1;rotation=-90;" vertex="1" parent="1">
          <mxGeometry x="-310" y="480" width="200" height="40" as="geometry" />
        </mxCell>
        <mxCell id="pt1OST3lwN21b6mKkAR4-85" value="&lt;font style=&quot;font-size: 25px;&quot;&gt;.1....2....3....&lt;span style=&quot;color: rgba(0, 0, 0, 0); font-family: monospace; font-size: 0px; text-align: start; text-wrap-mode: nowrap;&quot;&gt;%3CmxGraphModel%3E%3Croot%3E%3CmxCell%20id%3D%220%22%2F%3E%3CmxCell%20id%3D%221%22%20parent%3D%220%22%2F%3E%3CmxCell%20id%3D%222%22%20value%3D%22%22%20style%3D%22rounded%3D0%3BwhiteSpace%3Dwrap%3Bhtml%3D1%3B%22%20vertex%3D%221%22%20parent%3D%221%22%3E%3CmxGeometry%20x%3D%22200%22%20y%3D%22210%22%20width%3D%2240%22%20height%3D%22200%22%20as%3D%22geometry%22%2F%3E%3C%2FmxCell%3E%3C%2Froot%3E%3C%2FmxGraphModel%3E&lt;/span&gt;4....5.&lt;/font&gt;" style="rounded=0;whiteSpace=wrap;html=1;rotation=-90;" vertex="1" parent="1">
          <mxGeometry x="-250" y="480" width="200" height="40" as="geometry" />
        </mxCell>
        <mxCell id="pt1OST3lwN21b6mKkAR4-86" value="&lt;font style=&quot;font-size: 25px;&quot;&gt;.1....2....3....&lt;span style=&quot;color: rgba(0, 0, 0, 0); font-family: monospace; font-size: 0px; text-align: start; text-wrap-mode: nowrap;&quot;&gt;%3CmxGraphModel%3E%3Croot%3E%3CmxCell%20id%3D%220%22%2F%3E%3CmxCell%20id%3D%221%22%20parent%3D%220%22%2F%3E%3CmxCell%20id%3D%222%22%20value%3D%22%22%20style%3D%22rounded%3D0%3BwhiteSpace%3Dwrap%3Bhtml%3D1%3B%22%20vertex%3D%221%22%20parent%3D%221%22%3E%3CmxGeometry%20x%3D%22200%22%20y%3D%22210%22%20width%3D%2240%22%20height%3D%22200%22%20as%3D%22geometry%22%2F%3E%3C%2FmxCell%3E%3C%2Froot%3E%3C%2FmxGraphModel%3E&lt;/span&gt;4....5.&lt;/font&gt;" style="rounded=0;whiteSpace=wrap;html=1;rotation=-90;" vertex="1" parent="1">
          <mxGeometry x="-190" y="480" width="200" height="40" as="geometry" />
        </mxCell>
        <mxCell id="pt1OST3lwN21b6mKkAR4-87" value="&lt;font style=&quot;font-size: 25px;&quot;&gt;+5&lt;/font&gt;" style="ellipse;whiteSpace=wrap;html=1;" vertex="1" parent="1">
          <mxGeometry x="-190" y="610" width="80" height="40" as="geometry" />
        </mxCell>
        <mxCell id="pt1OST3lwN21b6mKkAR4-96" value="&lt;span style=&quot;font-size: 25px;&quot;&gt;Deception&lt;/span&gt;" style="rounded=1;whiteSpace=wrap;html=1;verticalAlign=top;align=left;" vertex="1" parent="1">
          <mxGeometry x="-480" y="920" width="200" height="40" as="geometry" />
        </mxCell>
        <mxCell id="pt1OST3lwN21b6mKkAR4-97" value="&lt;span style=&quot;font-size: 25px;&quot;&gt;+P&lt;/span&gt;" style="ellipse;whiteSpace=wrap;html=1;" vertex="1" parent="1">
          <mxGeometry x="-350" y="920" width="70" height="40" as="geometry" />
        </mxCell>
        <mxCell id="pt1OST3lwN21b6mKkAR4-98" value="&lt;span style=&quot;font-size: 25px;&quot;&gt;Intimidation&lt;/span&gt;" style="rounded=1;whiteSpace=wrap;html=1;verticalAlign=top;align=left;" vertex="1" parent="1">
          <mxGeometry x="-480" y="980" width="200" height="40" as="geometry" />
        </mxCell>
        <mxCell id="pt1OST3lwN21b6mKkAR4-99" value="&lt;span style=&quot;font-size: 25px;&quot;&gt;+P&lt;/span&gt;" style="ellipse;whiteSpace=wrap;html=1;" vertex="1" parent="1">
          <mxGeometry x="-350" y="980" width="70" height="40" as="geometry" />
        </mxCell>
        <mxCell id="pt1OST3lwN21b6mKkAR4-100" value="&lt;span style=&quot;font-size: 25px;&quot;&gt;Performance&lt;/span&gt;" style="rounded=1;whiteSpace=wrap;html=1;verticalAlign=top;align=left;" vertex="1" parent="1">
          <mxGeometry x="-480" y="1040" width="200" height="40" as="geometry" />
        </mxCell>
        <mxCell id="pt1OST3lwN21b6mKkAR4-101" value="&lt;span style=&quot;font-size: 25px;&quot;&gt;+P&lt;/span&gt;" style="ellipse;whiteSpace=wrap;html=1;" vertex="1" parent="1">
          <mxGeometry x="-350" y="1040" width="70" height="40" as="geometry" />
        </mxCell>
        <mxCell id="pt1OST3lwN21b6mKkAR4-102" value="&lt;span style=&quot;font-size: 25px;&quot;&gt;Persuasion&lt;/span&gt;" style="rounded=1;whiteSpace=wrap;html=1;verticalAlign=top;align=left;" vertex="1" parent="1">
          <mxGeometry x="-480" y="1100" width="200" height="40" as="geometry" />
        </mxCell>
        <mxCell id="pt1OST3lwN21b6mKkAR4-103" value="&lt;span style=&quot;font-size: 25px;&quot;&gt;+P&lt;/span&gt;" style="ellipse;whiteSpace=wrap;html=1;" vertex="1" parent="1">
          <mxGeometry x="-350" y="1100" width="70" height="40" as="geometry" />
        </mxCell>
        <mxCell id="pt1OST3lwN21b6mKkAR4-104" value="&lt;span style=&quot;font-size: 25px;&quot;&gt;Athletics&amp;nbsp;&lt;/span&gt;" style="rounded=1;whiteSpace=wrap;html=1;verticalAlign=top;align=left;" vertex="1" parent="1">
          <mxGeometry x="-240" y="1040" width="240" height="90" as="geometry" />
        </mxCell>
        <mxCell id="pt1OST3lwN21b6mKkAR4-105" value="&lt;font style=&quot;font-size: 25px;&quot;&gt;+P&lt;/font&gt;" style="ellipse;whiteSpace=wrap;html=1;" vertex="1" parent="1">
          <mxGeometry x="-70" y="1040" width="70" height="40" as="geometry" />
        </mxCell>
        <mxCell id="pt1OST3lwN21b6mKkAR4-106" value="&lt;font style=&quot;font-size: 25px;&quot;&gt;.1....2....3....&lt;span style=&quot;color: rgba(0, 0, 0, 0); font-family: monospace; font-size: 0px; text-align: start; text-wrap-mode: nowrap;&quot;&gt;%3CmxGraphModel%3E%3Croot%3E%3CmxCell%20id%3D%220%22%2F%3E%3CmxCell%20id%3D%221%22%20parent%3D%220%22%2F%3E%3CmxCell%20id%3D%222%22%20value%3D%22%22%20style%3D%22rounded%3D0%3BwhiteSpace%3Dwrap%3Bhtml%3D1%3B%22%20vertex%3D%221%22%20parent%3D%221%22%3E%3CmxGeometry%20x%3D%22200%22%20y%3D%22210%22%20width%3D%2240%22%20height%3D%22200%22%20as%3D%22geometry%22%2F%3E%3C%2FmxCell%3E%3C%2Froot%3E%3C%2FmxGraphModel%3E&lt;/span&gt;4....5.&lt;/font&gt;" style="rounded=0;whiteSpace=wrap;html=1;rotation=0;" vertex="1" parent="1">
          <mxGeometry x="-220" y="1080" width="200" height="40" as="geometry" />
        </mxCell>
        <mxCell id="pt1OST3lwN21b6mKkAR4-107" value="&lt;span style=&quot;font-size: 25px;&quot;&gt;Performance&lt;/span&gt;" style="rounded=1;whiteSpace=wrap;html=1;verticalAlign=top;align=left;" vertex="1" parent="1">
          <mxGeometry x="40" y="680" width="240" height="90" as="geometry" />
        </mxCell>
        <mxCell id="pt1OST3lwN21b6mKkAR4-108" value="&lt;font style=&quot;font-size: 25px;&quot;&gt;+P&lt;/font&gt;" style="ellipse;whiteSpace=wrap;html=1;" vertex="1" parent="1">
          <mxGeometry x="210" y="680" width="70" height="40" as="geometry" />
        </mxCell>
        <mxCell id="pt1OST3lwN21b6mKkAR4-109" value="&lt;font style=&quot;font-size: 25px;&quot;&gt;.1....2....3....&lt;span style=&quot;color: rgba(0, 0, 0, 0); font-family: monospace; font-size: 0px; text-align: start; text-wrap-mode: nowrap;&quot;&gt;%3CmxGraphModel%3E%3Croot%3E%3CmxCell%20id%3D%220%22%2F%3E%3CmxCell%20id%3D%221%22%20parent%3D%220%22%2F%3E%3CmxCell%20id%3D%222%22%20value%3D%22%22%20style%3D%22rounded%3D0%3BwhiteSpace%3Dwrap%3Bhtml%3D1%3B%22%20vertex%3D%221%22%20parent%3D%221%22%3E%3CmxGeometry%20x%3D%22200%22%20y%3D%22210%22%20width%3D%2240%22%20height%3D%22200%22%20as%3D%22geometry%22%2F%3E%3C%2FmxCell%3E%3C%2Froot%3E%3C%2FmxGraphModel%3E&lt;/span&gt;4....5.&lt;/font&gt;" style="rounded=0;whiteSpace=wrap;html=1;rotation=0;" vertex="1" parent="1">
          <mxGeometry x="60" y="720" width="200" height="40" as="geometry" />
        </mxCell>
        <mxCell id="pt1OST3lwN21b6mKkAR4-110" value="&lt;font style=&quot;font-size: 24px;&quot;&gt;Sleight of Hand&lt;/font&gt;" style="rounded=1;whiteSpace=wrap;html=1;verticalAlign=top;align=left;" vertex="1" parent="1">
          <mxGeometry x="40" y="800" width="240" height="90" as="geometry" />
        </mxCell>
        <mxCell id="pt1OST3lwN21b6mKkAR4-111" value="&lt;font style=&quot;font-size: 25px;&quot;&gt;+P&lt;/font&gt;" style="ellipse;whiteSpace=wrap;html=1;" vertex="1" parent="1">
          <mxGeometry x="210" y="800" width="70" height="40" as="geometry" />
        </mxCell>
        <mxCell id="pt1OST3lwN21b6mKkAR4-112" value="&lt;font style=&quot;font-size: 25px;&quot;&gt;.1....2....3....&lt;span style=&quot;color: rgba(0, 0, 0, 0); font-family: monospace; font-size: 0px; text-align: start; text-wrap-mode: nowrap;&quot;&gt;%3CmxGraphModel%3E%3Croot%3E%3CmxCell%20id%3D%220%22%2F%3E%3CmxCell%20id%3D%221%22%20parent%3D%220%22%2F%3E%3CmxCell%20id%3D%222%22%20value%3D%22%22%20style%3D%22rounded%3D0%3BwhiteSpace%3Dwrap%3Bhtml%3D1%3B%22%20vertex%3D%221%22%20parent%3D%221%22%3E%3CmxGeometry%20x%3D%22200%22%20y%3D%22210%22%20width%3D%2240%22%20height%3D%22200%22%20as%3D%22geometry%22%2F%3E%3C%2FmxCell%3E%3C%2Froot%3E%3C%2FmxGraphModel%3E&lt;/span&gt;4....5.&lt;/font&gt;" style="rounded=0;whiteSpace=wrap;html=1;rotation=0;" vertex="1" parent="1">
          <mxGeometry x="60" y="840" width="200" height="40" as="geometry" />
        </mxCell>
        <mxCell id="pt1OST3lwN21b6mKkAR4-113" value="&lt;font style=&quot;font-size: 24px;&quot;&gt;Athletics&lt;/font&gt;" style="rounded=1;whiteSpace=wrap;html=1;verticalAlign=top;align=left;" vertex="1" parent="1">
          <mxGeometry x="40" y="920" width="240" height="90" as="geometry" />
        </mxCell>
        <mxCell id="pt1OST3lwN21b6mKkAR4-114" value="&lt;font style=&quot;font-size: 25px;&quot;&gt;+P&lt;/font&gt;" style="ellipse;whiteSpace=wrap;html=1;" vertex="1" parent="1">
          <mxGeometry x="210" y="920" width="70" height="40" as="geometry" />
        </mxCell>
        <mxCell id="pt1OST3lwN21b6mKkAR4-115" value="&lt;font style=&quot;font-size: 25px;&quot;&gt;.1....2....3....&lt;span style=&quot;color: rgba(0, 0, 0, 0); font-family: monospace; font-size: 0px; text-align: start; text-wrap-mode: nowrap;&quot;&gt;%3CmxGraphModel%3E%3Croot%3E%3CmxCell%20id%3D%220%22%2F%3E%3CmxCell%20id%3D%221%22%20parent%3D%220%22%2F%3E%3CmxCell%20id%3D%222%22%20value%3D%22%22%20style%3D%22rounded%3D0%3BwhiteSpace%3Dwrap%3Bhtml%3D1%3B%22%20vertex%3D%221%22%20parent%3D%221%22%3E%3CmxGeometry%20x%3D%22200%22%20y%3D%22210%22%20width%3D%2240%22%20height%3D%22200%22%20as%3D%22geometry%22%2F%3E%3C%2FmxCell%3E%3C%2Froot%3E%3C%2FmxGraphModel%3E&lt;/span&gt;4....5.&lt;/font&gt;" style="rounded=0;whiteSpace=wrap;html=1;rotation=0;" vertex="1" parent="1">
          <mxGeometry x="60" y="960" width="200" height="40" as="geometry" />
        </mxCell>
        <mxCell id="pt1OST3lwN21b6mKkAR4-116" value="&lt;font style=&quot;font-size: 24px;&quot;&gt;Acrobatics&lt;/font&gt;" style="rounded=1;whiteSpace=wrap;html=1;verticalAlign=top;align=left;" vertex="1" parent="1">
          <mxGeometry x="40" y="1040" width="240" height="90" as="geometry" />
        </mxCell>
        <mxCell id="pt1OST3lwN21b6mKkAR4-117" value="&lt;font style=&quot;font-size: 25px;&quot;&gt;+P&lt;/font&gt;" style="ellipse;whiteSpace=wrap;html=1;" vertex="1" parent="1">
          <mxGeometry x="210" y="1040" width="70" height="40" as="geometry" />
        </mxCell>
        <mxCell id="pt1OST3lwN21b6mKkAR4-118" value="&lt;font style=&quot;font-size: 25px;&quot;&gt;.1....2....3....&lt;span style=&quot;color: rgba(0, 0, 0, 0); font-family: monospace; font-size: 0px; text-align: start; text-wrap-mode: nowrap;&quot;&gt;%3CmxGraphModel%3E%3Croot%3E%3CmxCell%20id%3D%220%22%2F%3E%3CmxCell%20id%3D%221%22%20parent%3D%220%22%2F%3E%3CmxCell%20id%3D%222%22%20value%3D%22%22%20style%3D%22rounded%3D0%3BwhiteSpace%3Dwrap%3Bhtml%3D1%3B%22%20vertex%3D%221%22%20parent%3D%221%22%3E%3CmxGeometry%20x%3D%22200%22%20y%3D%22210%22%20width%3D%2240%22%20height%3D%22200%22%20as%3D%22geometry%22%2F%3E%3C%2FmxCell%3E%3C%2Froot%3E%3C%2FmxGraphModel%3E&lt;/span&gt;4....5.&lt;/font&gt;" style="rounded=0;whiteSpace=wrap;html=1;rotation=0;" vertex="1" parent="1">
          <mxGeometry x="60" y="1080" width="200" height="40" as="geometry" />
        </mxCell>
        <mxCell id="pt1OST3lwN21b6mKkAR4-119" value="&lt;span style=&quot;font-size: 25px;&quot;&gt;Deception&lt;/span&gt;" style="rounded=1;whiteSpace=wrap;html=1;verticalAlign=top;align=left;" vertex="1" parent="1">
          <mxGeometry x="320" y="680" width="240" height="90" as="geometry" />
        </mxCell>
        <mxCell id="pt1OST3lwN21b6mKkAR4-120" value="&lt;font style=&quot;font-size: 25px;&quot;&gt;+P&lt;/font&gt;" style="ellipse;whiteSpace=wrap;html=1;" vertex="1" parent="1">
          <mxGeometry x="490" y="680" width="70" height="40" as="geometry" />
        </mxCell>
        <mxCell id="pt1OST3lwN21b6mKkAR4-121" value="&lt;font style=&quot;font-size: 25px;&quot;&gt;.1....2....3....&lt;span style=&quot;color: rgba(0, 0, 0, 0); font-family: monospace; font-size: 0px; text-align: start; text-wrap-mode: nowrap;&quot;&gt;%3CmxGraphModel%3E%3Croot%3E%3CmxCell%20id%3D%220%22%2F%3E%3CmxCell%20id%3D%221%22%20parent%3D%220%22%2F%3E%3CmxCell%20id%3D%222%22%20value%3D%22%22%20style%3D%22rounded%3D0%3BwhiteSpace%3Dwrap%3Bhtml%3D1%3B%22%20vertex%3D%221%22%20parent%3D%221%22%3E%3CmxGeometry%20x%3D%22200%22%20y%3D%22210%22%20width%3D%2240%22%20height%3D%22200%22%20as%3D%22geometry%22%2F%3E%3C%2FmxCell%3E%3C%2Froot%3E%3C%2FmxGraphModel%3E&lt;/span&gt;4....5.&lt;/font&gt;" style="rounded=0;whiteSpace=wrap;html=1;rotation=0;" vertex="1" parent="1">
          <mxGeometry x="340" y="720" width="200" height="40" as="geometry" />
        </mxCell>
        <mxCell id="pt1OST3lwN21b6mKkAR4-122" value="&lt;span style=&quot;font-size: 24px;&quot;&gt;Intimidation&lt;/span&gt;" style="rounded=1;whiteSpace=wrap;html=1;verticalAlign=top;align=left;" vertex="1" parent="1">
          <mxGeometry x="320" y="800" width="240" height="90" as="geometry" />
        </mxCell>
        <mxCell id="pt1OST3lwN21b6mKkAR4-123" value="&lt;font style=&quot;font-size: 25px;&quot;&gt;+P&lt;/font&gt;" style="ellipse;whiteSpace=wrap;html=1;" vertex="1" parent="1">
          <mxGeometry x="490" y="800" width="70" height="40" as="geometry" />
        </mxCell>
        <mxCell id="pt1OST3lwN21b6mKkAR4-124" value="&lt;font style=&quot;font-size: 25px;&quot;&gt;.1....2....3....&lt;span style=&quot;color: rgba(0, 0, 0, 0); font-family: monospace; font-size: 0px; text-align: start; text-wrap-mode: nowrap;&quot;&gt;%3CmxGraphModel%3E%3Croot%3E%3CmxCell%20id%3D%220%22%2F%3E%3CmxCell%20id%3D%221%22%20parent%3D%220%22%2F%3E%3CmxCell%20id%3D%222%22%20value%3D%22%22%20style%3D%22rounded%3D0%3BwhiteSpace%3Dwrap%3Bhtml%3D1%3B%22%20vertex%3D%221%22%20parent%3D%221%22%3E%3CmxGeometry%20x%3D%22200%22%20y%3D%22210%22%20width%3D%2240%22%20height%3D%22200%22%20as%3D%22geometry%22%2F%3E%3C%2FmxCell%3E%3C%2Froot%3E%3C%2FmxGraphModel%3E&lt;/span&gt;4....5.&lt;/font&gt;" style="rounded=0;whiteSpace=wrap;html=1;rotation=0;" vertex="1" parent="1">
          <mxGeometry x="340" y="840" width="200" height="40" as="geometry" />
        </mxCell>
        <mxCell id="pt1OST3lwN21b6mKkAR4-125" value="&lt;font style=&quot;font-size: 24px;&quot;&gt;Performance&lt;/font&gt;" style="rounded=1;whiteSpace=wrap;html=1;verticalAlign=top;align=left;" vertex="1" parent="1">
          <mxGeometry x="320" y="920" width="240" height="90" as="geometry" />
        </mxCell>
        <mxCell id="pt1OST3lwN21b6mKkAR4-126" value="&lt;font style=&quot;font-size: 25px;&quot;&gt;+P&lt;/font&gt;" style="ellipse;whiteSpace=wrap;html=1;" vertex="1" parent="1">
          <mxGeometry x="490" y="920" width="70" height="40" as="geometry" />
        </mxCell>
        <mxCell id="pt1OST3lwN21b6mKkAR4-127" value="&lt;font style=&quot;font-size: 25px;&quot;&gt;.1....2....3....&lt;span style=&quot;color: rgba(0, 0, 0, 0); font-family: monospace; font-size: 0px; text-align: start; text-wrap-mode: nowrap;&quot;&gt;%3CmxGraphModel%3E%3Croot%3E%3CmxCell%20id%3D%220%22%2F%3E%3CmxCell%20id%3D%221%22%20parent%3D%220%22%2F%3E%3CmxCell%20id%3D%222%22%20value%3D%22%22%20style%3D%22rounded%3D0%3BwhiteSpace%3Dwrap%3Bhtml%3D1%3B%22%20vertex%3D%221%22%20parent%3D%221%22%3E%3CmxGeometry%20x%3D%22200%22%20y%3D%22210%22%20width%3D%2240%22%20height%3D%22200%22%20as%3D%22geometry%22%2F%3E%3C%2FmxCell%3E%3C%2Froot%3E%3C%2FmxGraphModel%3E&lt;/span&gt;4....5.&lt;/font&gt;" style="rounded=0;whiteSpace=wrap;html=1;rotation=0;" vertex="1" parent="1">
          <mxGeometry x="340" y="960" width="200" height="40" as="geometry" />
        </mxCell>
        <mxCell id="pt1OST3lwN21b6mKkAR4-128" value="&lt;font style=&quot;font-size: 24px;&quot;&gt;Persuasion&lt;/font&gt;" style="rounded=1;whiteSpace=wrap;html=1;verticalAlign=top;align=left;" vertex="1" parent="1">
          <mxGeometry x="320" y="1040" width="240" height="90" as="geometry" />
        </mxCell>
        <mxCell id="pt1OST3lwN21b6mKkAR4-129" value="&lt;font style=&quot;font-size: 25px;&quot;&gt;+P&lt;/font&gt;" style="ellipse;whiteSpace=wrap;html=1;" vertex="1" parent="1">
          <mxGeometry x="490" y="1040" width="70" height="40" as="geometry" />
        </mxCell>
        <mxCell id="pt1OST3lwN21b6mKkAR4-130" value="&lt;font style=&quot;font-size: 25px;&quot;&gt;.1....2....3....&lt;span style=&quot;color: rgba(0, 0, 0, 0); font-family: monospace; font-size: 0px; text-align: start; text-wrap-mode: nowrap;&quot;&gt;%3CmxGraphModel%3E%3Croot%3E%3CmxCell%20id%3D%220%22%2F%3E%3CmxCell%20id%3D%221%22%20parent%3D%220%22%2F%3E%3CmxCell%20id%3D%222%22%20value%3D%22%22%20style%3D%22rounded%3D0%3BwhiteSpace%3Dwrap%3Bhtml%3D1%3B%22%20vertex%3D%221%22%20parent%3D%221%22%3E%3CmxGeometry%20x%3D%22200%22%20y%3D%22210%22%20width%3D%2240%22%20height%3D%22200%22%20as%3D%22geometry%22%2F%3E%3C%2FmxCell%3E%3C%2Froot%3E%3C%2FmxGraphModel%3E&lt;/span&gt;4....5.&lt;/font&gt;" style="rounded=0;whiteSpace=wrap;html=1;rotation=0;" vertex="1" parent="1">
          <mxGeometry x="340" y="1080" width="200" height="40" as="geometry" />
        </mxCell>
      </root>
    </mxGraphModel>
  </diagram>
</mxfile>
